HIERARCHY
ROOT Hips
{
	OFFSET 0.000000 0.000000 0.000000
	CHANNELS 6 Xposition Yposition Zposition Zrotation Yrotation Xrotation 
	JOINT LHipJoint
	{
		OFFSET 0.000000 0.000000 0.000000
		CHANNELS 3 Zrotation Yrotation Xrotation
		JOINT LeftUpLeg
		{
			OFFSET 1.363060 -1.794630 0.839290
			CHANNELS 3 Zrotation Yrotation Xrotation
			JOINT LeftLeg
			{
				OFFSET 2.448110 -6.726130 0.000000
				CHANNELS 3 Zrotation Yrotation Xrotation
				JOINT LeftFoot
				{
					OFFSET 2.562200 -7.039590 0.000000
					CHANNELS 3 Zrotation Yrotation Xrotation
					JOINT LeftToeBase
					{
						OFFSET 0.157640 -0.433110 2.322550
						CHANNELS 3 Zrotation Yrotation Xrotation
						End Site
						{
							OFFSET 0.000000 0.000000 0.000000
						}
					}
				}
			}
		}
	}
	JOINT RHipJoint
	{
		OFFSET 0.000000 0.000000 0.000000
		CHANNELS 3 Zrotation Yrotation Xrotation
		JOINT RightUpLeg
		{
			OFFSET -1.305520 -1.794630 0.839290
			CHANNELS 3 Zrotation Yrotation Xrotation
			JOINT RightLeg
			{
				OFFSET -2.542530 -6.985550 0.000000
				CHANNELS 3 Zrotation Yrotation Xrotation
				JOINT RightFoot
				{
					OFFSET -2.568260 -7.056230 0.000000
					CHANNELS 3 Zrotation Yrotation Xrotation
					JOINT RightToeBase
					{
						OFFSET -0.164730 -0.452590 2.363150
						CHANNELS 3 Zrotation Yrotation Xrotation
						End Site
						{
							OFFSET 0.000000 0.000000 0.000000
						}
					}
				}
			}
		}
	}
	JOINT LowerBack
	{
		OFFSET 0.000000 0.000000 0.000000
		CHANNELS 3 Zrotation Yrotation Xrotation
		JOINT Spine
		{
			OFFSET 0.028270 2.035590 -0.193380
			CHANNELS 3 Zrotation Yrotation Xrotation
			JOINT Spine1
			{
				OFFSET 0.056720 2.048850 -0.042750
				CHANNELS 3 Zrotation Yrotation Xrotation
				JOINT Neck
				{
					OFFSET 0.000000 0.000000 0.000000
					CHANNELS 3 Zrotation Yrotation Xrotation
					JOINT Neck1
					{
						OFFSET -0.054170 1.746240 0.172020
						CHANNELS 3 Zrotation Yrotation Xrotation
						JOINT Head
						{
							OFFSET 0.104070 1.761360 -0.123970
							CHANNELS 3 Zrotation Yrotation Xrotation
							End Site
							{
								OFFSET 0.000000 0.000000 0.000000
							}
						}
					}
				}
				JOINT LeftShoulder
				{
					OFFSET 0.000000 0.000000 0.000000
					CHANNELS 3 Zrotation Yrotation Xrotation
					JOINT LeftArm
					{
						OFFSET 3.362410 1.200890 -0.311210
						CHANNELS 3 Zrotation Yrotation Xrotation
						JOINT LeftForeArm
						{
							OFFSET 4.983000 -0.000000 -0.000000
							CHANNELS 3 Zrotation Yrotation Xrotation
							JOINT LeftHand
							{
								OFFSET 3.483560 -0.000000 -0.000000
								CHANNELS 3 Zrotation Yrotation Xrotation
								JOINT LeftFingerBase
								{
									OFFSET 0.000000 0.000000 0.000000
									CHANNELS 3 Zrotation Yrotation Xrotation
									JOINT LeftHandIndex1
									{
										OFFSET 0.715260 -0.000000 -0.000000
										CHANNELS 3 Zrotation Yrotation Xrotation
										End Site
										{
											OFFSET 0.000000 0.000000 0.000000
										}
									}
								}
								JOINT LThumb
								{
									OFFSET 0.000000 0.000000 0.000000
									CHANNELS 3 Zrotation Yrotation Xrotation
									End Site
									{
										OFFSET 0.000000 0.000000 0.000000
									}
								}
							}
						}
					}
				}
				JOINT RightShoulder
				{
					OFFSET 0.000000 0.000000 0.000000
					CHANNELS 3 Zrotation Yrotation Xrotation
					JOINT RightArm
					{
						OFFSET -3.136600 1.374050 -0.404650
						CHANNELS 3 Zrotation Yrotation Xrotation
						JOINT RightForeArm
						{
							OFFSET -5.241900 -0.000000 -0.000000
							CHANNELS 3 Zrotation Yrotation Xrotation
							JOINT RightHand
							{
								OFFSET -3.444170 -0.000000 -0.000000
								CHANNELS 3 Zrotation Yrotation Xrotation
								JOINT RightFingerBase
								{
									OFFSET 0.000000 0.000000 0.000000
									CHANNELS 3 Zrotation Yrotation Xrotation
									JOINT RightHandIndex1
									{
										OFFSET -0.622530 -0.000000 -0.000000
										CHANNELS 3 Zrotation Yrotation Xrotation
										End Site
										{
											OFFSET 0.000000 0.000000 0.000000
										}
									}
								}
								JOINT RThumb
								{
									OFFSET 0.000000 0.000000 0.000000
									CHANNELS 3 Zrotation Yrotation Xrotation
									End Site
									{
										OFFSET 0.000000 0.000000 0.000000
									}
								}
							}
						}
					}
				}
			}
		}
	}
}
MOTION
Frames: 4
Frame Time: 0.008333
-7.813794 17.853100 -14.516997 27.527236 -82.505920 -27.746908 -2.683365 2.519818 2.765541 3.781846 -16.895635 -6.016033 -0.893598 5.160069 13.624848 -0.734446 11.297680 19.545224 0.180600 -2.737500 -7.548800 0.867121 -1.532830 1.293406 12.746386 3.605210 -1.938924 -1.290635 -8.618497 25.410201 0.408988 -4.112077 -7.610461 -0.752200 5.539400 -15.453600 1.026660 1.993329 9.721190 0.920269 2.771394 1.664692 -2.453259 1.404589 -3.228807 -9.591770 3.819057 -11.655447 3.227533 5.606616 31.013278 4.205100 0.079200 17.585400 -6.645128 -1.375868 -1.427090 -82.766558 4.346979 0.159847 13.596842 -19.727018 -2.702858 -1.923149 -2.086458 10.234409 22.265648 20.473615 9.703500 -7.125000 0.000000 0.000000 -5.568700 54.578500 -1.313500 5.366200 0.815083 -1.247009 77.926543 -0.765903 8.152782 -17.439268 25.893864 -4.351147 0.482802 -0.148031 3.808090 -17.126500 8.579503 -2.743100 7.125000 0.000000 0.000000 6.680000 -20.909000 3.882200 
-7.826677 17.843337 -14.427626 29.205764 -82.526365 -29.343652 -2.674376 2.591881 2.857551 3.841893 -16.939398 -5.612619 -1.007627 4.810262 12.640446 -0.540963 10.950166 20.329917 0.197800 -2.863800 -7.899800 0.838671 -1.535338 1.269564 12.269444 3.910388 -1.873860 -1.305852 -8.664288 25.510627 0.428574 -4.188283 -7.564260 -0.690400 5.311900 -14.800200 0.833200 1.962778 9.641816 0.929003 2.705331 1.644749 -2.330140 1.370933 -3.250589 -9.805076 3.863687 -11.685550 3.222361 5.752765 30.992449 4.261400 0.099100 17.561900 -6.661349 -1.372906 -1.427632 -82.863028 4.377444 0.056888 13.478134 -19.544108 -2.651880 -1.777075 -2.193827 9.766358 20.525304 21.023591 9.093400 -7.125000 0.000000 0.000000 -7.760900 54.859100 -1.887800 5.368866 0.811811 -1.249698 77.684111 -0.757641 8.344104 -17.398416 25.838049 -4.329483 0.490774 -0.150485 3.871354 -17.343255 8.577522 -2.780100 7.125000 0.000000 0.000000 6.518000 -20.897700 3.788400 
-7.840867 17.841425 -14.341476 29.869140 -82.499619 -29.914470 -2.664480 2.662351 2.944403 3.951504 -16.987294 -5.224187 -1.112720 4.443977 11.596668 -0.377946 10.846377 21.203890 0.223000 -3.039900 -8.389900 0.810079 -1.540301 1.245736 11.934455 4.124236 -1.894259 -1.329367 -8.732808 25.682202 0.430229 -4.259677 -7.928912 -0.770900 5.606400 -15.646500 0.706541 1.983867 9.534985 0.921089 2.718261 1.631248 -2.287435 1.373689 -3.238840 -9.855271 3.795426 -11.696714 3.248786 5.669698 30.905766 4.273700 0.071300 17.519300 -6.678993 -1.374978 -1.419313 -82.787283 4.253386 -0.013906 13.295578 -19.274563 -2.572702 -1.796188 -2.189853 9.967265 20.515993 21.106947 9.124700 -7.125000 0.000000 0.000000 -7.792700 54.947600 -1.912400 5.373182 0.817659 -1.250363 77.617083 -0.780386 8.315667 -17.375467 25.809775 -4.318703 0.490521 -0.150008 3.968634 -17.339942 8.532457 -2.764800 7.125000 0.000000 0.000000 6.521000 -20.946100 3.783100 
-7.856769 17.856622 -14.256131 29.519144 -82.477923 -29.473581 -2.636230 2.716956 3.033173 4.113486 -16.869287 -4.900875 -1.198657 4.092830 10.628342 -0.161134 10.510788 22.130163 0.258600 -3.271700 -9.036100 0.783283 -1.550339 1.220377 11.791428 4.273956 -1.957622 -1.341444 -8.790142 25.817179 0.463431 -4.514685 -8.616476 -1.156100 6.826700 -19.202900 0.684954 1.976603 9.429788 0.917712 2.710049 1.614331 -2.297788 1.363394 -3.224528 -9.819861 3.753656 -11.803567 3.380332 5.586394 30.934643 4.327800 0.058100 17.578900 -6.692280 -1.375353 -1.413505 -82.708988 4.150369 -0.142088 13.124184 -19.025735 -2.497815 -1.912692 -2.108453 10.492613 21.613334 20.755142 9.517300 -7.125000 0.000000 0.000000 -6.384900 54.764700 -1.536100 5.378409 0.823988 -1.252387 77.589901 -0.807037 8.233261 -17.348081 25.778732 -4.307128 0.485559 -0.153108 3.927901 -17.203662 8.634249 -2.774800 7.125000 0.000000 0.000000 6.621400 -20.843800 3.857500 
